<svg width="60" height="60" viewBox="0 0 60 60" xmlns="http://www.w3.org/2000/svg">
  <!-- African continent outline -->
  <path d="M30 5 C35 5, 40 8, 42 12 C45 15, 47 20, 46 25 C47 30, 45 35, 43 40 C40 45, 35 48, 30 50 C25 48, 20 45, 17 40 C15 35, 13 30, 14 25 C13 20, 15 15, 18 12 C20 8, 25 5, 30 5 Z" fill="#2E7D32" stroke="#fff" stroke-width="1"/>
  
  <!-- Somalia flag circle -->
  <circle cx="38" cy="18" r="8" fill="#5DADE2" stroke="#fff" stroke-width="1"/>
  
  <!-- Star in Somalia flag -->
  <path d="M38 12 L39.5 16 L43 16 L40.5 18.5 L41.5 22 L38 20 L34.5 22 L35.5 18.5 L33 16 L36.5 16 Z" fill="#fff"/>
  
  <!-- Professional figure -->
  <ellipse cx="25" cy="20" rx="3" ry="4" fill="#E53E3E"/>
  <ellipse cx="25" cy="16" rx="2" ry="2" fill="#E53E3E"/>
  
  <!-- Briefcase -->
  <rect x="20" y="28" width="6" height="4" rx="1" fill="#000" stroke="#fff" stroke-width="0.5"/>
  <rect x="21.5" y="27" width="3" height="1" fill="#000"/>
  
  <!-- Dynamic lines -->
  <path d="M15 35 Q25 30, 35 35" stroke="#E53E3E" stroke-width="2" fill="none"/>
  <path d="M18 40 Q28 35, 38 40" stroke="#E53E3E" stroke-width="2" fill="none"/>
</svg>